<svg width="145" height="24" viewBox="0 0 145 24" fill="none" xmlns="http://www.w3.org/2000/svg">
<path d="M12.0675 2.28749C12.2275 1.90417 12.7725 1.90417 12.9325 2.28749L15.3634 8.11167C15.4309 8.27326 15.5834 8.38368 15.7585 8.39766L22.0684 8.90174C22.4837 8.93492 22.6521 9.45136 22.3357 9.72144L17.5282 13.8251C17.3948 13.9389 17.3365 14.1176 17.3773 14.2878L18.8461 20.4235C18.9427 20.8274 18.5019 21.1465 18.1463 20.9301L12.7441 17.6421C12.5943 17.5509 12.4057 17.5509 12.2559 17.6421L6.85369 20.9301C6.49814 21.1465 6.05728 20.8274 6.15395 20.4235L7.62271 14.2878C7.66347 14.1176 7.60521 13.9389 7.47182 13.8251L2.66433 9.72144C2.34793 9.45136 2.51632 8.93492 2.93161 8.90174L9.24153 8.39766C9.4166 8.38368 9.56911 8.27326 9.63656 8.11167L12.0675 2.28749Z" fill="#FFBC1F"/>
<path d="M42.0675 2.28749C42.2275 1.90417 42.7725 1.90417 42.9325 2.28749L45.3634 8.11167C45.4309 8.27326 45.5834 8.38368 45.7585 8.39766L52.0684 8.90174C52.4837 8.93492 52.6521 9.45136 52.3357 9.72144L47.5282 13.8251C47.3948 13.9389 47.3365 14.1176 47.3773 14.2878L48.8461 20.4235C48.9427 20.8274 48.5019 21.1465 48.1463 20.9301L42.7441 17.6421C42.5943 17.5509 42.4057 17.5509 42.2559 17.6421L36.8537 20.9301C36.4981 21.1465 36.0573 20.8274 36.1539 20.4235L37.6227 14.2878C37.6635 14.1176 37.6052 13.9389 37.4718 13.8251L32.6643 9.72144C32.3479 9.45136 32.5163 8.93492 32.9316 8.90174L39.2415 8.39766C39.4166 8.38368 39.5691 8.27326 39.6366 8.11167L42.0675 2.28749Z" fill="#FFBC1F"/>
<path d="M72.0675 2.28749C72.2275 1.90417 72.7725 1.90417 72.9325 2.28749L75.3634 8.11167C75.4309 8.27326 75.5834 8.38368 75.7585 8.39766L82.0684 8.90174C82.4837 8.93492 82.6521 9.45136 82.3357 9.72144L77.5282 13.8251C77.3948 13.9389 77.3365 14.1176 77.3773 14.2878L78.8461 20.4235C78.9427 20.8274 78.5019 21.1465 78.1463 20.9301L72.7441 17.6421C72.5943 17.5509 72.4057 17.5509 72.2559 17.6421L66.8537 20.9301C66.4981 21.1465 66.0573 20.8274 66.1539 20.4235L67.6227 14.2878C67.6635 14.1176 67.6052 13.9389 67.4718 13.8251L62.6643 9.72144C62.3479 9.45136 62.5163 8.93492 62.9316 8.90174L69.2415 8.39766C69.4166 8.38368 69.5691 8.27326 69.6366 8.11167L72.0675 2.28749Z" fill="#FFBC1F"/>
<path d="M102.068 2.28749C102.228 1.90417 102.772 1.90417 102.932 2.28749L105.363 8.11167C105.431 8.27326 105.583 8.38368 105.758 8.39766L112.068 8.90174C112.484 8.93492 112.652 9.45136 112.336 9.72144L107.528 13.8251C107.395 13.9389 107.337 14.1176 107.377 14.2878L108.846 20.4235C108.943 20.8274 108.502 21.1465 108.146 20.9301L102.744 17.6421C102.594 17.5509 102.406 17.5509 102.256 17.6421L96.8537 20.9301C96.4981 21.1465 96.0573 20.8274 96.1539 20.4235L97.6227 14.2878C97.6635 14.1176 97.6052 13.9389 97.4718 13.8251L92.6643 9.72144C92.3479 9.45136 92.5163 8.93492 92.9316 8.90174L99.2415 8.39766C99.4166 8.38368 99.5691 8.27326 99.6366 8.11167L102.068 2.28749Z" fill="#FFBC1F"/>
<path d="M130.098 8.30426L132.5 2.54946L134.902 8.30426C135.042 8.63938 135.358 8.86723 135.719 8.89608L141.949 9.39383L137.204 13.4448C136.928 13.6804 136.806 14.0508 136.891 14.4042L138.342 20.4636L133.004 17.215C132.695 17.0266 132.305 17.0266 131.996 17.215L126.658 20.4636L128.109 14.4042C128.194 14.0508 128.072 13.6804 127.796 13.4448L123.051 9.39383L129.281 8.89608C129.642 8.86723 129.958 8.63938 130.098 8.30426Z" stroke="#FFBC1F"/>
</svg>
